<svg version="1.1" id="Layer_1" xmlns="http://www.w3.org/2000/svg" xmlns:xlink="http://www.w3.org/1999/xlink" x="0px" y="0px"
	 width="100%" viewBox="0 0 100 100" enable-background="new 0 0 100 100" xml:space="preserve">
<path fill="#000000" opacity="1.000000" stroke="none" 
	d="
M64.000000,101.000000 
	C42.666672,101.000000 21.833342,101.000000 1.000008,101.000000 
	C1.000006,67.666679 1.000006,34.333351 1.000003,1.000022 
	C34.333317,1.000015 67.666634,1.000015 100.999969,1.000007 
	C100.999977,34.333309 100.999977,67.666618 100.999985,100.999969 
	C88.833336,101.000000 76.666664,101.000000 64.000000,101.000000 
M13.042612,92.356384 
	C16.860270,93.543030 20.677927,94.729668 24.495586,95.916313 
	C24.888601,95.125305 25.281616,94.334305 25.674633,93.543297 
	C24.630157,92.692841 23.710384,91.404350 22.520252,91.065544 
	C16.412918,89.326912 15.042174,87.669014 15.007003,81.050316 
	C14.974236,74.884270 15.286708,68.698357 14.868134,62.560677 
	C14.683790,59.857590 12.940282,57.289394 12.140704,54.590038 
	C11.570769,52.665955 10.410792,49.537609 11.206707,48.817543 
	C15.538311,44.898724 15.078959,40.023407 15.013855,35.082176 
	C14.950188,30.250029 14.959074,25.415953 15.010250,20.583508 
	C15.076089,14.366654 16.562140,12.627431 22.383209,10.928854 
	C23.581020,10.579335 24.467335,9.162314 26.127039,7.671667 
	C15.783166,5.248938 9.862208,9.573451 10.914107,19.277977 
	C11.414029,23.890121 10.854687,28.607033 11.037533,33.266190 
	C11.256051,38.834305 9.770618,43.588543 5.317664,47.166683 
	C2.096869,49.754738 2.140249,52.284386 5.337050,54.853882 
	C9.793550,58.435886 11.220320,63.199802 11.041809,68.762047 
	C10.854804,74.588959 10.851145,80.432625 11.089527,86.255783 
	C11.162287,88.033165 12.299983,89.766945 13.042612,92.356384 
M91.230843,38.751194 
	C91.153893,31.094906 91.164391,23.435949 90.930740,15.784449 
	C90.880302,14.132600 90.169510,12.393425 89.386116,10.890914 
	C86.663330,5.668662 81.804260,7.178410 76.970085,7.704091 
	C77.556046,9.173737 78.422920,10.585656 79.600922,10.928481 
	C85.436356,12.626713 86.933205,14.359324 86.987686,20.566439 
	C87.043274,26.898243 86.754143,33.245152 87.119621,39.556282 
	C87.268219,42.122143 88.180420,45.061970 89.750092,47.030251 
	C92.160172,50.052383 92.108971,52.082039 89.672096,55.029518 
	C88.164436,56.853092 87.248711,59.630264 87.116806,62.036880 
	C86.770775,68.350204 87.024689,74.695190 86.993202,81.027328 
	C86.960258,87.653587 85.568840,89.318947 79.509796,91.082787 
	C78.325699,91.427498 77.485611,92.953903 76.486862,93.935272 
	C78.463936,94.999954 79.443123,94.994820 80.422234,95.000763 
	C88.082390,95.047272 90.998039,92.188599 90.999786,84.624298 
	C91.000938,79.625122 91.201714,74.615692 90.948494,69.629379 
	C90.638092,63.517162 92.220253,58.337326 97.083374,54.380306 
	C99.989044,52.016029 99.379898,49.964653 97.013901,47.364311 
	C94.903610,45.044998 93.545547,42.041264 91.230843,38.751194 
M46.954559,51.499451 
	C48.837177,50.264103 50.772808,49.100445 52.580364,47.763607 
	C53.504364,47.080238 54.930542,45.981968 54.826939,45.257534 
	C54.668591,44.150276 53.480396,42.439697 52.558552,42.321869 
	C48.518417,41.805462 47.077801,39.170277 45.869987,35.805611 
	C45.451229,34.639057 43.865032,33.421387 42.636864,33.200294 
	C41.952087,33.077019 40.347321,34.842999 40.127026,35.950512 
	C39.397110,39.620121 37.506264,41.572811 33.751686,42.153576 
	C32.719948,42.313171 31.244024,43.892056 31.194105,44.881348 
	C31.145788,45.838879 32.565594,47.613735 33.523235,47.750500 
	C37.734474,48.351913 39.530327,50.850903 40.397507,54.698154 
	C40.602478,55.607513 42.023136,56.802475 42.922306,56.835400 
	C43.789223,56.867146 44.880901,55.698105 45.543987,54.810257 
	C46.082546,54.089142 46.132553,53.003155 46.954559,51.499451 
M57.171631,56.973377 
	C56.448822,57.564888 55.221832,58.097393 55.143772,58.764370 
	C55.064323,59.443176 56.034885,60.335682 56.689590,60.990780 
	C58.070633,62.372639 59.557400,63.648163 60.976971,64.992477 
	C61.650841,65.630623 62.249489,66.828033 62.919773,66.855484 
	C63.593082,66.883080 64.341278,65.800385 65.006744,65.152939 
	C66.406975,63.790649 67.787781,62.407681 69.149704,61.007080 
	C69.796974,60.341423 70.881958,59.596260 70.855492,58.923012 
	C70.829140,58.252682 69.634071,57.651024 68.995712,56.977314 
	C67.651001,55.558109 66.373344,54.073307 64.990929,52.692787 
	C64.335335,52.038097 63.553158,51.257141 62.730347,51.119614 
	C62.250908,51.039474 61.518845,52.069431 61.003975,52.686321 
	C59.940948,53.959988 58.947227,55.291496 57.171631,56.973377 
z"/>
<path fill="#FFFFFF" opacity="1.000000" stroke="none" 
	d="
M12.996292,91.938538 
	C12.299983,89.766945 11.162287,88.033165 11.089527,86.255783 
	C10.851145,80.432625 10.854804,74.588959 11.041809,68.762047 
	C11.220320,63.199802 9.793550,58.435886 5.337050,54.853882 
	C2.140249,52.284386 2.096869,49.754738 5.317664,47.166683 
	C9.770618,43.588543 11.256051,38.834305 11.037533,33.266190 
	C10.854687,28.607033 11.414029,23.890121 10.914107,19.277977 
	C9.862208,9.573451 15.783166,5.248938 26.127039,7.671667 
	C24.467335,9.162314 23.581020,10.579335 22.383209,10.928854 
	C16.562140,12.627431 15.076089,14.366654 15.010250,20.583508 
	C14.959074,25.415953 14.950188,30.250029 15.013855,35.082176 
	C15.078959,40.023407 15.538311,44.898724 11.206707,48.817543 
	C10.410792,49.537609 11.570769,52.665955 12.140704,54.590038 
	C12.940282,57.289394 14.683790,59.857590 14.868134,62.560677 
	C15.286708,68.698357 14.974236,74.884270 15.007003,81.050316 
	C15.042174,87.669014 16.412918,89.326912 22.520252,91.065544 
	C23.710384,91.404350 24.630157,92.692841 25.674633,93.543297 
	C25.281616,94.334305 24.888601,95.125305 24.495586,95.916313 
	C20.677927,94.729668 16.860270,93.543030 12.996292,91.938538 
z"/>
<path fill="#FFFFFF" opacity="1.000000" stroke="none" 
	d="
M91.543182,39.045380 
	C93.545547,42.041264 94.903610,45.044998 97.013901,47.364311 
	C99.379898,49.964653 99.989044,52.016029 97.083374,54.380306 
	C92.220253,58.337326 90.638092,63.517162 90.948494,69.629379 
	C91.201714,74.615692 91.000938,79.625122 90.999786,84.624298 
	C90.998039,92.188599 88.082390,95.047272 80.422234,95.000763 
	C79.443123,94.994820 78.463936,94.999954 76.486862,93.935272 
	C77.485611,92.953903 78.325699,91.427498 79.509796,91.082787 
	C85.568840,89.318947 86.960258,87.653587 86.993202,81.027328 
	C87.024689,74.695190 86.770775,68.350204 87.116806,62.036880 
	C87.248711,59.630264 88.164436,56.853092 89.672096,55.029518 
	C92.108971,52.082039 92.160172,50.052383 89.750092,47.030251 
	C88.180420,45.061970 87.268219,42.122143 87.119621,39.556282 
	C86.754143,33.245152 87.043274,26.898243 86.987686,20.566439 
	C86.933205,14.359324 85.436356,12.626713 79.600922,10.928481 
	C78.422920,10.585656 77.556046,9.173737 76.970085,7.704091 
	C81.804260,7.178410 86.663330,5.668662 89.386116,10.890914 
	C90.169510,12.393425 90.880302,14.132600 90.930740,15.784449 
	C91.164391,23.435949 91.153893,31.094906 91.543182,39.045380 
z"/>
<path fill="#FFFFFF" opacity="1.000000" stroke="none" 
	d="
M46.676895,51.789215 
	C46.132553,53.003155 46.082546,54.089142 45.543987,54.810257 
	C44.880901,55.698105 43.789223,56.867146 42.922306,56.835400 
	C42.023136,56.802475 40.602478,55.607513 40.397507,54.698154 
	C39.530327,50.850903 37.734474,48.351913 33.523235,47.750500 
	C32.565594,47.613735 31.145788,45.838879 31.194105,44.881348 
	C31.244024,43.892056 32.719948,42.313171 33.751686,42.153576 
	C37.506264,41.572811 39.397110,39.620121 40.127026,35.950512 
	C40.347321,34.842999 41.952087,33.077019 42.636864,33.200294 
	C43.865032,33.421387 45.451229,34.639057 45.869987,35.805611 
	C47.077801,39.170277 48.518417,41.805462 52.558552,42.321869 
	C53.480396,42.439697 54.668591,44.150276 54.826939,45.257534 
	C54.930542,45.981968 53.504364,47.080238 52.580364,47.763607 
	C50.772808,49.100445 48.837177,50.264103 46.676895,51.789215 
z"/>
<path fill="#FFFFFF" opacity="1.000000" stroke="none" 
	d="
M57.548313,56.786293 
	C58.947227,55.291496 59.940948,53.959988 61.003975,52.686321 
	C61.518845,52.069431 62.250908,51.039474 62.730347,51.119614 
	C63.553158,51.257141 64.335335,52.038097 64.990929,52.692787 
	C66.373344,54.073307 67.651001,55.558109 68.995712,56.977314 
	C69.634071,57.651024 70.829140,58.252682 70.855492,58.923012 
	C70.881958,59.596260 69.796974,60.341423 69.149704,61.007080 
	C67.787781,62.407681 66.406975,63.790649 65.006744,65.152939 
	C64.341278,65.800385 63.593082,66.883080 62.919773,66.855484 
	C62.249489,66.828033 61.650841,65.630623 60.976971,64.992477 
	C59.557400,63.648163 58.070633,62.372639 56.689590,60.990780 
	C56.034885,60.335682 55.064323,59.443176 55.143772,58.764370 
	C55.221832,58.097393 56.448822,57.564888 57.548313,56.786293 
z"/>
</svg>